<svg width="128" height="61" viewBox="0 0 128 61" fill="none" xmlns="http://www.w3.org/2000/svg">
<path d="M18.5 23H13.5469L13.5781 19.3438H18.5C19.7292 19.3438 20.7656 19.0677 21.6094 18.5156C22.4531 17.9531 23.0885 17.1354 23.5156 16.0625C23.9531 14.9896 24.1719 13.6927 24.1719 12.1719V11.0625C24.1719 9.89583 24.0469 8.86979 23.7969 7.98438C23.5573 7.09896 23.1979 6.35417 22.7188 5.75C22.2396 5.14583 21.651 4.69271 20.9531 4.39062C20.2552 4.07812 19.4531 3.92188 18.5469 3.92188H13.4531V0.25H18.5469C20.0677 0.25 21.4583 0.510417 22.7188 1.03125C23.9896 1.54167 25.0885 2.27604 26.0156 3.23438C26.9427 4.19271 27.6562 5.33854 28.1562 6.67188C28.6667 7.99479 28.9219 9.46875 28.9219 11.0938V12.1719C28.9219 13.7865 28.6667 15.2604 28.1562 16.5938C27.6562 17.9271 26.9427 19.0729 26.0156 20.0312C25.099 20.9792 24 21.7135 22.7188 22.2344C21.4479 22.7448 20.0417 23 18.5 23ZM16.2031 0.25V23H11.5156V0.25H16.2031Z" fill="black"/>
<path d="M47.5 9.51562V13.1719H35.625V9.51562H47.5ZM37.0156 0.25V23H32.3281V0.25H37.0156ZM50.8438 0.25V23H46.1719V0.25H50.8438Z" fill="black"/>
<path d="M64.4531 4.14062L58.2656 23H53.2812L61.7344 0.25H64.9062L64.4531 4.14062ZM69.5938 23L63.3906 4.14062L62.8906 0.25H66.0938L74.5938 23H69.5938ZM69.3125 14.5312V18.2031H57.2969V14.5312H69.3125Z" fill="black"/>
<path d="M81.3906 0.25V23H76.7031V0.25H81.3906ZM95.0156 0.25L86 11.4844L80.7969 17.0781L79.9531 12.6406L83.4688 7.82812L89.2656 0.25H95.0156ZM89.6875 23L82.9844 12.4844L86.4531 9.57812L95.2344 23H89.6875Z" fill="black"/>
<path d="M106.297 4.14062L100.109 23H95.125L103.578 0.25H106.75L106.297 4.14062ZM111.438 23L105.234 4.14062L104.734 0.25H107.938L116.438 23H111.438ZM111.156 14.5312V18.2031H99.1406V14.5312H111.156Z" fill="black"/>
<path d="M15.3125 57.3438V61H3.85938V57.3438H15.3125ZM5.375 38.25V61H0.6875V38.25H5.375Z" fill="black"/>
<path d="M22.9844 38.25V61H18.3125V38.25H22.9844Z" fill="black"/>
<path d="M36.2812 51.0156H30.4375L30.4062 47.7969H35.3125C36.1771 47.7969 36.8854 47.6875 37.4375 47.4688C37.9896 47.2396 38.401 46.9115 38.6719 46.4844C38.9531 46.0469 39.0938 45.5156 39.0938 44.8906C39.0938 44.1823 38.9583 43.6094 38.6875 43.1719C38.4271 42.7344 38.0156 42.4167 37.4531 42.2188C36.901 42.0208 36.1875 41.9219 35.3125 41.9219H32.0625V61H27.375V38.25H35.3125C36.6354 38.25 37.8177 38.375 38.8594 38.625C39.9115 38.875 40.8021 39.2552 41.5312 39.7656C42.2604 40.276 42.8177 40.9219 43.2031 41.7031C43.5885 42.474 43.7812 43.3906 43.7812 44.4531C43.7812 45.3906 43.5677 46.2552 43.1406 47.0469C42.724 47.8385 42.0625 48.4844 41.1562 48.9844C40.2604 49.4844 39.0885 49.7604 37.6406 49.8125L36.2812 51.0156ZM36.0781 61H29.1562L30.9844 57.3438H36.0781C36.901 57.3438 37.5729 57.2135 38.0938 56.9531C38.6146 56.6823 39 56.3177 39.25 55.8594C39.5 55.401 39.625 54.875 39.625 54.2812C39.625 53.6146 39.5104 53.0365 39.2812 52.5469C39.0625 52.0573 38.7083 51.6823 38.2188 51.4219C37.7292 51.151 37.0833 51.0156 36.2812 51.0156H31.7656L31.7969 47.7969H37.4219L38.5 49.0625C39.8854 49.0417 41 49.2865 41.8438 49.7969C42.6979 50.2969 43.3177 50.9479 43.7031 51.75C44.099 52.5521 44.2969 53.4115 44.2969 54.3281C44.2969 55.7865 43.9792 57.0156 43.3438 58.0156C42.7083 59.0052 41.776 59.75 40.5469 60.25C39.3281 60.75 37.8385 61 36.0781 61Z" fill="black"/>
<path d="M47.8125 38.25H56.2969C58.0365 38.25 59.5312 38.5104 60.7812 39.0312C62.0417 39.5521 63.0104 40.3229 63.6875 41.3438C64.3646 42.3646 64.7031 43.6198 64.7031 45.1094C64.7031 46.3281 64.4948 47.375 64.0781 48.25C63.6719 49.1146 63.0938 49.8385 62.3438 50.4219C61.6042 50.9948 60.7344 51.4531 59.7344 51.7969L58.25 52.5781H50.875L50.8438 48.9219H56.3281C57.151 48.9219 57.8333 48.776 58.375 48.4844C58.9167 48.1927 59.3229 47.7865 59.5938 47.2656C59.875 46.7448 60.0156 46.1406 60.0156 45.4531C60.0156 44.724 59.8802 44.0938 59.6094 43.5625C59.3385 43.0312 58.9271 42.625 58.375 42.3438C57.8229 42.0625 57.1302 41.9219 56.2969 41.9219H52.5V61H47.8125V38.25ZM60.5312 61L55.3438 50.8594L60.2969 50.8281L65.5469 60.7812V61H60.5312Z" fill="black"/>
<path d="M77.5625 42.1406L71.375 61H66.3906L74.8438 38.25H78.0156L77.5625 42.1406ZM82.7031 61L76.5 42.1406L76 38.25H79.2031L87.7031 61H82.7031ZM82.4219 52.5312V56.2031H70.4062V52.5312H82.4219Z" fill="black"/>
<path d="M89.8125 38.25H98.2969C100.036 38.25 101.531 38.5104 102.781 39.0312C104.042 39.5521 105.01 40.3229 105.688 41.3438C106.365 42.3646 106.703 43.6198 106.703 45.1094C106.703 46.3281 106.495 47.375 106.078 48.25C105.672 49.1146 105.094 49.8385 104.344 50.4219C103.604 50.9948 102.734 51.4531 101.734 51.7969L100.25 52.5781H92.875L92.8438 48.9219H98.3281C99.151 48.9219 99.8333 48.776 100.375 48.4844C100.917 48.1927 101.323 47.7865 101.594 47.2656C101.875 46.7448 102.016 46.1406 102.016 45.4531C102.016 44.724 101.88 44.0938 101.609 43.5625C101.339 43.0312 100.927 42.625 100.375 42.3438C99.8229 42.0625 99.1302 41.9219 98.2969 41.9219H94.5V61H89.8125V38.25ZM102.531 61L97.3438 50.8594L102.297 50.8281L107.547 60.7812V61H102.531Z" fill="black"/>
<path d="M112.688 38.25L117.438 48.625L122.188 38.25H127.297L119.812 52.7188V61H115.062V52.7188L107.562 38.25H112.688Z" fill="black"/>
</svg>

